<?xml version="1.0" encoding="utf-8"?>
<!-- Generator: Adobe Illustrator 15.0.0, SVG Export Plug-In . SVG Version: 6.00 Build 0)  -->
<!DOCTYPE svg PUBLIC "-//W3C//DTD SVG 1.1//EN" "http://www.w3.org/Graphics/SVG/1.1/DTD/svg11.dtd">
<svg version="1.1" id="Layer_1" xmlns="http://www.w3.org/2000/svg" xmlns:xlink="http://www.w3.org/1999/xlink" x="0px" y="0px"
	 width="24px" height="24px" viewBox="0 0 24 24" enable-background="new 0 0 24 24" xml:space="preserve">
<title>cacaca</title>
<path fill="#FFFFFF" d="M12,8.06c3.045-0.001,5.984,1.108,8.27,3.12l1.53-1.72c-2.684-2.451-6.166-3.844-9.8-3.92
	C8.368,5.613,4.885,7.003,2.2,9.45l1.53,1.72C6.016,9.16,8.957,8.055,12,8.06"/>
<path fill="#FFFFFF" d="M12,13c1.836-0.008,3.611,0.65,5,1.85l1.63-1.819c-1.829-1.62-4.187-2.52-6.63-2.53
	c-2.429,0.011-4.773,0.898-6.6,2.5L7,14.87C8.386,13.664,10.162,12.999,12,13"/>
<path fill="#FFFFFF" d="M15.34,16.689C14.412,15.881,13.23,15.424,12,15.4c-1.23,0.023-2.413,0.48-3.34,1.289l3.34,3.75
	L15.34,16.689z"/>
</svg>
